#Comment line ignore any data following # character 
#Hierarchical Translation and Rotation (.htr) file 
[Header]	
#Header keywords are followed by a single value 
FileType HTR		#Single word string
DataType HTRS		#Translation followed by rotation and scale data
FileVersion 1		#integer
NumSegments 84		#integer
NumFrames 2		#integer
DataFrameRate 30		#integer, data frame rate in this file
EulerRotationOrder ZYX
CalibrationUnits mm
RotationUnits Degrees
GlobalAxisofGravity Y
BoneLengthAxis Y
ScaleFactor 1.00
[SegmentNames&Hierarchy]
#CHILD	PARENT
MASTER GLOBAL
root MASTER
chest root
L_mid_tent01 root
R_mid_tent01 root
spine01 root
Bip01_Neck chest
L_humerus chest
R_humerus chest
weapon_bone chest
Bip01_Head Bip01_Neck
eye_left_bone Bip01_Head
eye_right_bone Bip01_Head
L_forearm L_humerus
L_front_hand L_forearm
L_weapon_bone L_forearm
L_front_hand01_01 L_front_hand
L_front_hand02_01 L_front_hand
L_front_hand03_01 L_front_hand
L_front_hand01_02 L_front_hand01_01
L_front_hand02_02 L_front_hand02_01
L_front_hand03_02 L_front_hand03_01
R_forearm R_humerus
R_front_hand R_forearm
R_weapon_bone R_forearm
R_front_hand01_01 R_front_hand
R_front_hand02_01 R_front_hand
R_front_hand03_01 R_front_hand
R_front_hand01_02 R_front_hand01_01
R_front_hand02_02 R_front_hand02_01
R_front_hand03_02 R_front_hand03_01
null_rope01_connect L_mid_tent01
Rope1_Seg01 null_rope01_connect
Rope1_Seg02 Rope1_Seg01
Rope1_Seg03 Rope1_Seg02
Rope1_Seg04 Rope1_Seg03
Rope1_Seg05 Rope1_Seg04
Rope1_Seg06 Rope1_Seg05
Rope1_Seg07 Rope1_Seg06
Rope1_Seg09 Rope1_Seg07
L_mid_hand01 Rope1_Seg09
L_mid_hand02 Rope1_Seg09
L_mid_hand03 Rope1_Seg09
null_rope02_connect R_mid_tent01
Rope2_Seg01 null_rope02_connect
Rope2_Seg02 Rope2_Seg01
Rope2_Seg03 Rope2_Seg02
Rope2_Seg04 Rope2_Seg03
Rope2_Seg05 Rope2_Seg04
Rope2_Seg06 Rope2_Seg05
Rope2_Seg07 Rope2_Seg06
Rope2_Seg09 Rope2_Seg07
R_mid_hand01 Rope2_Seg09
R_mid_hand02 Rope2_Seg09
R_mid_hand03 Rope2_Seg09
spine02 spine01
spine03 spine02
pelvis spine03
null_rope03_connect pelvis
null_rope04_connect pelvis
Rope3_Seg01 null_rope03_connect
Rope3_Seg02 Rope3_Seg01
Rope3_Seg03 Rope3_Seg02
Rope3_Seg04 Rope3_Seg03
Rope3_Seg05 Rope3_Seg04
Rope3_Seg06 Rope3_Seg05
Rope3_Seg07 Rope3_Seg06
Rope3_Seg08 Rope3_Seg07
Rope3_Seg09 Rope3_Seg08
R_rear_hand01 Rope3_Seg09
R_rear_hand02 Rope3_Seg09
R_rear_hand03 Rope3_Seg09
Rope4_Seg01 null_rope04_connect
Rope4_Seg02 Rope4_Seg01
Rope4_Seg03 Rope4_Seg02
Rope4_Seg04 Rope4_Seg03
Rope4_Seg05 Rope4_Seg04
Rope4_Seg06 Rope4_Seg05
Rope4_Seg07 Rope4_Seg06
Rope4_Seg08 Rope4_Seg07
Rope4_Seg09 Rope4_Seg08
L_rear_hand01 Rope4_Seg09
L_rear_hand02 Rope4_Seg09
L_rear_hand03 Rope4_Seg09
[BasePosition]
#SegmentName Tx, Ty, Tz, Rx, Ry, Rz, BoneLength
MASTER 0.000000 0.000000 0.000000 -90.000000 0.000000 0.000000 10.000000 
root 0.000000 0.000000 0.000000 0.000000 0.000000 0.000000 10.000000 
chest 0.000000 0.000000 0.000000 0.000000 0.000000 0.000000 10.000000 
L_mid_tent01 0.000000 0.000000 0.000000 0.000000 0.000000 0.000000 10.000000 
R_mid_tent01 0.000000 0.000000 0.000000 0.000000 0.000000 0.000000 10.000000 
spine01 0.000000 0.000000 0.000000 0.000000 0.000000 0.000000 10.000000 
Bip01_Neck 0.000000 0.000000 0.000000 0.000000 0.000000 0.000000 10.000000 
L_humerus 0.000000 0.000000 0.000000 0.000000 0.000000 0.000000 10.000000 
R_humerus 0.000000 0.000000 0.000000 0.000000 0.000000 0.000000 10.000000 
weapon_bone 0.000000 0.000000 0.000000 0.000000 0.000000 0.000000 10.000000 
Bip01_Head 0.000000 0.000000 0.000000 0.000000 0.000000 0.000000 10.000000 
eye_left_bone 0.000000 0.000000 0.000000 0.000000 0.000000 0.000000 10.000000 
eye_right_bone 0.000000 0.000000 0.000000 0.000000 0.000000 0.000000 10.000000 
L_forearm 0.000000 0.000000 0.000000 0.000000 0.000000 0.000000 10.000000 
L_front_hand 0.000000 0.000000 0.000000 0.000000 0.000000 0.000000 10.000000 
L_weapon_bone 0.000000 0.000000 0.000000 0.000000 0.000000 0.000000 10.000000 
L_front_hand01_01 0.000000 0.000000 0.000000 0.000000 0.000000 0.000000 10.000000 
L_front_hand02_01 0.000000 0.000000 0.000000 0.000000 0.000000 0.000000 10.000000 
L_front_hand03_01 0.000000 0.000000 0.000000 0.000000 0.000000 0.000000 10.000000 
L_front_hand01_02 0.000000 0.000000 0.000000 0.000000 0.000000 0.000000 10.000000 
L_front_hand02_02 0.000000 0.000000 0.000000 0.000000 0.000000 0.000000 10.000000 
L_front_hand03_02 0.000000 0.000000 0.000000 0.000000 0.000000 0.000000 10.000000 
R_forearm 0.000000 0.000000 0.000000 0.000000 0.000000 0.000000 10.000000 
R_front_hand 0.000000 0.000000 0.000000 0.000000 0.000000 0.000000 10.000000 
R_weapon_bone 0.000000 0.000000 0.000000 0.000000 0.000000 0.000000 10.000000 
R_front_hand01_01 0.000000 0.000000 0.000000 0.000000 0.000000 0.000000 10.000000 
R_front_hand02_01 0.000000 0.000000 0.000000 0.000000 0.000000 0.000000 10.000000 
R_front_hand03_01 0.000000 0.000000 0.000000 0.000000 0.000000 0.000000 10.000000 
R_front_hand01_02 0.000000 0.000000 0.000000 0.000000 0.000000 0.000000 10.000000 
R_front_hand02_02 0.000000 0.000000 0.000000 0.000000 0.000000 0.000000 10.000000 
R_front_hand03_02 0.000000 0.000000 0.000000 0.000000 0.000000 0.000000 10.000000 
null_rope01_connect 0.000000 0.000000 0.000000 0.000000 0.000000 0.000000 10.000000 
Rope1_Seg01 0.000000 0.000000 0.000000 0.000000 0.000000 0.000000 10.000000 
Rope1_Seg02 0.000000 0.000000 0.000000 0.000000 0.000000 0.000000 10.000000 
Rope1_Seg03 0.000000 0.000000 0.000000 0.000000 0.000000 0.000000 10.000000 
Rope1_Seg04 0.000000 0.000000 0.000000 0.000000 0.000000 0.000000 10.000000 
Rope1_Seg05 0.000000 0.000000 0.000000 0.000000 0.000000 0.000000 10.000000 
Rope1_Seg06 0.000000 0.000000 0.000000 0.000000 0.000000 0.000000 10.000000 
Rope1_Seg07 0.000000 0.000000 0.000000 0.000000 0.000000 0.000000 10.000000 
Rope1_Seg09 0.000000 0.000000 0.000000 0.000000 0.000000 0.000000 10.000000 
L_mid_hand01 0.000000 0.000000 0.000000 0.000000 0.000000 0.000000 10.000000 
L_mid_hand02 0.000000 0.000000 0.000000 0.000000 0.000000 0.000000 10.000000 
L_mid_hand03 0.000000 0.000000 0.000000 0.000000 0.000000 0.000000 10.000000 
null_rope02_connect 0.000000 0.000000 0.000000 0.000000 0.000000 0.000000 10.000000 
Rope2_Seg01 0.000000 0.000000 0.000000 0.000000 0.000000 0.000000 10.000000 
Rope2_Seg02 0.000000 0.000000 0.000000 0.000000 0.000000 0.000000 10.000000 
Rope2_Seg03 0.000000 0.000000 0.000000 0.000000 0.000000 0.000000 10.000000 
Rope2_Seg04 0.000000 0.000000 0.000000 0.000000 0.000000 0.000000 10.000000 
Rope2_Seg05 0.000000 0.000000 0.000000 0.000000 0.000000 0.000000 10.000000 
Rope2_Seg06 0.000000 0.000000 0.000000 0.000000 0.000000 0.000000 10.000000 
Rope2_Seg07 0.000000 0.000000 0.000000 0.000000 0.000000 0.000000 10.000000 
Rope2_Seg09 0.000000 0.000000 0.000000 0.000000 0.000000 0.000000 10.000000 
R_mid_hand01 0.000000 0.000000 0.000000 0.000000 0.000000 0.000000 10.000000 
R_mid_hand02 0.000000 0.000000 0.000000 0.000000 0.000000 0.000000 10.000000 
R_mid_hand03 0.000000 0.000000 0.000000 0.000000 0.000000 0.000000 10.000000 
spine02 0.000000 0.000000 0.000000 0.000000 0.000000 0.000000 10.000000 
spine03 0.000000 0.000000 0.000000 0.000000 0.000000 0.000000 10.000000 
pelvis 0.000000 0.000000 0.000000 0.000000 0.000000 0.000000 10.000000 
null_rope03_connect 0.000000 0.000000 0.000000 0.000000 0.000000 0.000000 10.000000 
null_rope04_connect 0.000000 0.000000 0.000000 0.000000 0.000000 0.000000 10.000000 
Rope3_Seg01 0.000000 0.000000 0.000000 0.000000 0.000000 0.000000 10.000000 
Rope3_Seg02 0.000000 0.000000 0.000000 0.000000 0.000000 0.000000 10.000000 
Rope3_Seg03 0.000000 0.000000 0.000000 0.000000 0.000000 0.000000 10.000000 
Rope3_Seg04 0.000000 0.000000 0.000000 0.000000 0.000000 0.000000 10.000000 
Rope3_Seg05 0.000000 0.000000 0.000000 0.000000 0.000000 0.000000 10.000000 
Rope3_Seg06 0.000000 0.000000 0.000000 0.000000 0.000000 0.000000 10.000000 
Rope3_Seg07 0.000000 0.000000 0.000000 0.000000 0.000000 0.000000 10.000000 
Rope3_Seg08 0.000000 0.000000 0.000000 0.000000 0.000000 0.000000 10.000000 
Rope3_Seg09 0.000000 0.000000 0.000000 0.000000 0.000000 0.000000 10.000000 
R_rear_hand01 0.000000 0.000000 0.000000 0.000000 0.000000 0.000000 10.000000 
R_rear_hand02 0.000000 0.000000 0.000000 0.000000 0.000000 0.000000 10.000000 
R_rear_hand03 0.000000 0.000000 0.000000 0.000000 0.000000 0.000000 10.000000 
Rope4_Seg01 0.000000 0.000000 0.000000 0.000000 0.000000 0.000000 10.000000 
Rope4_Seg02 0.000000 0.000000 0.000000 0.000000 0.000000 0.000000 10.000000 
Rope4_Seg03 0.000000 0.000000 0.000000 0.000000 0.000000 0.000000 10.000000 
Rope4_Seg04 0.000000 0.000000 0.000000 0.000000 0.000000 0.000000 10.000000 
Rope4_Seg05 0.000000 0.000000 0.000000 0.000000 0.000000 0.000000 10.000000 
Rope4_Seg06 0.000000 0.000000 0.000000 0.000000 0.000000 0.000000 10.000000 
Rope4_Seg07 0.000000 0.000000 0.000000 0.000000 0.000000 0.000000 10.000000 
Rope4_Seg08 0.000000 0.000000 0.000000 0.000000 0.000000 0.000000 10.000000 
Rope4_Seg09 0.000000 0.000000 0.000000 0.000000 0.000000 0.000000 10.000000 
L_rear_hand01 0.000000 0.000000 0.000000 0.000000 0.000000 0.000000 10.000000 
L_rear_hand02 0.000000 0.000000 0.000000 0.000000 0.000000 0.000000 10.000000 
L_rear_hand03 0.000000 0.000000 0.000000 0.000000 0.000000 0.000000 10.000000 
#Beginning of Data. Separated by tabs
#Fr	Tx	Ty	Tz	Rx	Ry	Rz	SF
[MASTER]
15 -1409.428955 2880.652832 -964.738220 0.001660 0.001660 0.001660 3348.935791
16 -1454.009399 3023.467529 -1100.123291 0.001660 0.001660 0.001660 3530.689697
[root]
15 81.085205 -208.494553 747.239380 -75.401802 -27.940197 -85.744034 780.007324
16 65.471184 -181.897873 835.695129 -81.579308 -32.225933 -88.522987 857.764343
[chest]
15 -84.512650 -34.090519 0.000000 -0.081175 -8.325464 171.725800 91.129311
16 -84.512650 -34.090519 0.000000 -3.703632 -7.081110 175.025131 91.129311
[L_mid_tent01]
15 27.299089 22.179199 -249.918793 -17.156303 18.074957 33.929951 252.381760
16 27.299101 22.179188 -249.918793 -15.988456 21.019064 37.744320 252.381760
[R_mid_tent01]
15 23.228794 24.509907 226.238495 163.934494 -6.915286 20.720499 228.744751
16 23.228794 24.509907 226.238495 166.242416 -9.699557 26.019770 228.744751
[spine01]
15 -0.361383 -0.195265 0.000000 0.001718 0.001599 4.097558 0.410763
16 -0.361383 -0.195265 0.000000 0.001739 0.001576 5.627168 0.410763
[Bip01_Neck]
15 165.484543 71.581718 0.000119 176.643677 -1.657967 43.431911 180.302734
16 165.484543 71.581718 0.000119 176.643677 -1.657967 43.431911 180.302734
[L_humerus]
15 -13.983130 -135.272980 -120.471481 165.285217 15.979833 -141.876572 181.680161
16 -13.983130 -135.272980 -120.471481 161.786041 25.052319 -140.592499 181.680161
[R_humerus]
15 -13.983309 -135.273102 125.287651 -171.122147 -17.286947 -142.545837 184.909012
16 -13.983309 -135.273102 125.287651 -167.687531 -26.287729 -139.795731 184.909012
[weapon_bone]
15 235.964890 -300.705902 0.000000 0.000000 -89.951546 -128.212341 382.234833
16 235.964890 -300.705902 0.000000 0.000000 -89.951546 -128.212341 382.234833
[Bip01_Head]
15 213.407425 185.817215 10.465074 -3.429166 2.886154 -42.912632 283.161224
16 213.413895 185.799133 10.698283 -3.047768 3.056303 -43.293377 283.162964
[eye_left_bone]
15 -24.626970 125.451866 -64.772606 0.000000 -90.000000 -99.840431 143.318359
16 -24.626970 125.451866 -64.772606 0.000000 -90.000000 -99.840431 143.318359
[eye_right_bone]
15 -24.626970 125.451866 64.327362 0.000000 -89.965736 80.156380 143.117676
16 -24.626970 125.451866 64.327362 0.000000 -89.965736 80.156380 143.117676
[L_forearm]
15 322.776093 0.000000 -0.000119 0.000406 -0.002312 -109.940041 322.776093
16 322.776093 0.000000 -0.000119 0.000404 -0.002312 -109.837524 322.776093
[L_front_hand]
15 241.149185 -0.042021 -3.300071 -178.667953 -1.835447 -27.422350 241.171753
16 241.149185 -0.042021 -3.300071 -178.667953 -1.835447 -27.422350 241.171753
[L_weapon_bone]
15 156.183838 0.000000 0.000000 0.000014 0.000007 0.000001 156.183838
16 156.183838 0.000000 0.000000 0.000014 0.000007 0.000001 156.183838
[L_front_hand01_01]
15 86.095154 20.947098 -0.655860 -0.366594 -0.477154 75.385574 88.609184
16 86.095154 20.947098 -0.655860 -0.366594 -0.477154 75.385574 88.609184
[L_front_hand02_01]
15 86.935165 -11.437475 24.513514 154.399796 -59.883835 -61.369587 91.046425
16 86.935165 -11.437475 24.513514 154.399796 -59.883835 -61.369587 91.046425
[L_front_hand03_01]
15 86.637497 -14.123976 -20.424902 -153.913849 58.118122 -62.702866 90.126129
16 86.637497 -14.123976 -20.424902 -153.913849 58.118122 -62.702866 90.126129
[L_front_hand01_02]
15 71.020905 -0.000179 0.000030 0.000334 -0.002323 -106.371124 71.020905
16 71.020905 -0.000179 0.000030 0.000334 -0.002323 -106.372086 71.020905
[L_front_hand02_02]
15 71.020927 -0.000119 0.000060 0.000334 -0.002323 -106.371124 71.020927
16 71.020927 -0.000119 0.000060 0.000334 -0.002323 -106.372086 71.020927
[L_front_hand03_02]
15 71.020905 -0.000060 0.000060 0.000334 -0.002323 -106.371124 71.020905
16 71.020905 -0.000060 0.000060 0.000334 -0.002323 -106.372086 71.020905
[R_forearm]
15 322.776428 -0.000060 0.000030 0.201800 0.066090 -108.591957 322.776428
16 322.776428 -0.000060 0.000030 0.201858 0.065911 -108.489990 322.776428
[R_front_hand]
15 238.847015 -0.006795 2.210259 -2.635298 -10.645461 -26.312506 238.857239
16 238.847015 -0.006795 2.210259 -2.635298 -10.645461 -26.312506 238.857239
[R_weapon_bone]
15 155.664093 0.002503 -0.000030 0.003487 0.001180 -90.988930 155.664078
16 155.664093 0.002503 -0.000030 0.003487 0.001180 -90.988930 155.664078
[R_front_hand01_01]
15 87.624611 14.231146 22.918642 -154.633499 -59.950619 61.746044 91.683487
16 87.624611 14.231146 22.918642 -154.633499 -59.950619 61.746044 91.683487
[R_front_hand02_01]
15 89.356956 14.367283 -19.491137 154.602661 58.302849 63.744389 92.579636
16 89.356956 14.367283 -19.491137 154.602661 58.302849 63.744389 92.579636
[R_front_hand03_01]
15 87.286232 -22.307278 -0.143439 0.162155 -0.423168 -75.767921 90.091743
16 87.286232 -22.307278 -0.143439 0.162155 -0.423168 -75.767921 90.091743
[R_front_hand01_02]
15 71.020905 0.000060 0.000119 0.002323 -0.000334 106.381714 71.020905
16 71.020905 0.000060 0.000119 0.002323 -0.000334 106.381714 71.020905
[R_front_hand02_02]
15 71.020844 -0.000030 -0.000119 0.002323 -0.000334 106.381714 71.020836
16 71.020844 -0.000030 -0.000119 0.002323 -0.000334 106.381714 71.020836
[R_front_hand03_02]
15 71.020905 0.000000 0.000030 0.002323 -0.000334 106.381714 71.020905
16 71.020905 0.000000 0.000030 0.002323 -0.000334 106.381714 71.020905
[null_rope01_connect]
15 328.732483 0.000000 -0.000238 -144.975296 -82.256813 -134.134308 328.732483
16 328.732483 0.000000 -0.000238 -131.204468 -73.026405 -147.610901 328.732483
[Rope1_Seg01]
15 0.000032 -0.000049 0.000093 17.532217 8.491493 -140.537811 0.000110
16 0.000036 -0.000048 0.000100 6.930318 2.949549 -146.183838 0.000116
[Rope1_Seg02]
15 139.999863 -0.000179 0.000000 0.678614 5.282899 -4.656964 139.999863
16 139.999863 -0.000179 0.000000 2.179141 6.529919 -3.972351 139.999863
[Rope1_Seg03]
15 139.999924 0.000060 -0.000060 -0.928527 4.148984 -5.973547 139.999924
16 139.999924 0.000060 -0.000060 0.521492 5.216492 -4.575174 139.999924
[Rope1_Seg04]
15 139.999924 -0.000060 -0.000119 -1.676991 3.179134 -7.070661 139.999924
16 139.999924 -0.000060 -0.000119 -1.483906 4.187770 -7.521582 139.999924
[Rope1_Seg05]
15 139.999832 0.000119 -0.000060 4.437276 3.578582 6.467023 139.999832
16 139.999832 0.000119 -0.000060 2.414459 3.022405 2.722950 139.999832
[Rope1_Seg06]
15 139.999954 0.000119 -0.000060 11.298641 5.176501 15.410912 139.999954
16 139.999954 0.000119 -0.000060 7.566674 2.950807 12.516718 139.999954
[Rope1_Seg07]
15 139.999985 0.000060 0.000000 7.965762 5.149410 7.804683 139.999985
16 139.999985 0.000060 0.000000 7.958296 3.785018 9.615731 139.999985
[Rope1_Seg09]
15 121.602913 0.000119 -0.000089 -89.793175 -1.359789 0.847147 121.602913
16 121.602913 0.000119 -0.000089 -89.793175 -1.359789 0.847147 121.602913
[L_mid_hand01]
15 103.859421 1.038730 8.195221 130.544342 -67.584518 -38.866936 104.187431
16 103.859421 1.038730 8.195221 130.544373 -67.584534 -38.866943 104.187431
[L_mid_hand02]
15 105.572853 -4.139662 -10.864139 -168.923172 43.409309 -73.498894 106.211075
16 105.572853 -4.139662 -10.864139 -168.923172 43.409321 -73.498909 106.211075
[L_mid_hand03]
15 104.641464 17.579376 -3.913581 -6.012626 17.808172 74.893661 106.179977
16 104.641464 17.579376 -3.913581 -6.012628 17.808178 74.893669 106.179977
[null_rope02_connect]
15 328.732849 0.000179 -0.000119 -75.275124 73.915924 4.848020 328.732849
16 328.732849 0.000179 -0.000119 -60.521282 74.171509 20.920589 328.732849
[Rope2_Seg01]
15 0.000022 0.000245 0.000000 -47.557804 -11.792747 -70.289825 0.000246
16 0.000020 0.000252 0.000000 -45.650864 -8.605165 -78.805351 0.000253
[Rope2_Seg02]
15 139.999741 -0.000060 -0.000119 -16.726816 7.235472 -17.649677 139.999756
16 139.999741 -0.000060 -0.000119 -16.449486 2.661877 -19.074957 139.999756
[Rope2_Seg03]
15 140.000107 0.000030 0.000000 -8.561085 -0.322189 -9.756388 140.000107
16 140.000107 0.000030 0.000000 -8.424778 -2.865846 -10.373347 140.000107
[Rope2_Seg04]
15 139.999802 0.000000 -0.000060 10.594085 12.581318 8.783433 139.999802
16 139.999802 0.000000 -0.000060 12.502249 19.266420 11.957604 139.999802
[Rope2_Seg05]
15 139.999985 -0.000060 0.000119 12.069210 20.782387 14.083338 139.999985
16 139.999985 -0.000060 0.000119 7.392102 23.202553 11.657361 139.999985
[Rope2_Seg06]
15 139.999893 -0.000030 -0.000119 2.190317 10.368979 3.966019 139.999893
16 139.999893 -0.000030 -0.000119 0.392064 8.186992 2.613249 139.999893
[Rope2_Seg07]
15 139.999893 0.000060 -0.000060 0.566154 5.747499 1.872293 139.999893
16 139.999893 0.000060 -0.000060 -0.129097 4.450779 1.347867 139.999893
[Rope2_Seg09]
15 121.338966 0.000089 -0.000060 33.793236 -1.359788 -0.847141 121.338966
16 121.338966 0.000089 -0.000060 33.793236 -1.359788 -0.847141 121.338966
[R_mid_hand01]
15 104.680779 11.144459 -10.335981 -16.212063 45.237247 70.462852 105.778534
16 104.680779 11.144459 -10.335981 -16.212063 45.237240 70.462852 105.778534
[R_mid_hand02]
15 104.070427 2.443552 8.231699 49.067368 -67.749771 39.286453 104.424065
16 104.070427 2.443552 8.231699 49.067368 -67.749771 39.286453 104.424065
[R_mid_hand03]
15 106.028137 -11.221827 -5.996406 -177.101105 15.551026 -76.585571 106.788818
16 106.028137 -11.221827 -5.996406 -177.101105 15.551026 -76.585571 106.788818
[spine02]
15 129.756927 0.001550 0.000119 0.410901 -4.039437 -13.659180 129.756927
16 129.756927 0.001550 0.000119 0.401522 -4.040476 -13.532616 129.756927
[spine03]
15 78.613770 0.081342 -4.898909 1.939060 3.809251 17.123211 78.766304
16 78.613754 0.081374 -4.898901 1.934343 3.811725 17.050976 78.766281
[pelvis]
15 169.435242 0.051022 0.000000 0.027977 -0.189282 -12.859432 169.435257
16 169.435242 0.051022 0.000000 0.028553 -0.189196 -13.207886 169.435257
[null_rope03_connect]
15 -1.257226 -2.466202 137.391083 40.228573 -71.814384 82.520355 137.418976
16 -1.257226 -2.466202 137.391083 39.988010 -79.534233 86.209122 137.418976
[null_rope04_connect]
15 -1.259640 -2.480268 -137.844437 40.228573 -71.814384 82.520355 137.872513
16 -1.259640 -2.480268 -137.844437 39.988010 -79.534233 86.209122 137.872513
[Rope3_Seg01]
15 0.000000 0.000000 0.000000 15.465638 4.208191 -92.820251 0.000000
16 0.000000 0.000000 0.000000 15.310052 2.611041 -96.812424 0.000000
[Rope3_Seg02]
15 139.999924 -0.000119 0.000060 2.376367 -10.745525 7.400579 139.999924
16 139.999924 -0.000119 0.000060 3.075963 -9.460802 7.621792 139.999924
[Rope3_Seg03]
15 139.999924 -0.000119 0.000119 2.194217 -10.811894 8.133849 139.999924
16 139.999924 -0.000119 0.000119 2.797959 -10.058574 9.072445 139.999924
[Rope3_Seg04]
15 139.999924 0.000119 0.000000 1.758010 -10.290708 8.293685 139.999924
16 139.999924 0.000119 0.000000 2.086943 -10.243887 10.193506 139.999924
[Rope3_Seg05]
15 139.999924 -0.000238 0.000060 0.117757 0.510528 0.526436 139.999924
16 139.999924 -0.000238 0.000060 -0.039329 1.069893 -0.152031 139.999924
[Rope3_Seg06]
15 139.999893 -0.000119 -0.000060 -1.578856 8.333389 -5.337273 139.999893
16 139.999893 -0.000119 -0.000060 -2.230508 8.450905 -7.399778 139.999893
[Rope3_Seg07]
15 139.999771 0.000060 -0.000119 -0.592859 5.499750 -2.993064 139.999771
16 139.999771 0.000060 -0.000119 -0.896796 4.937374 -3.720761 139.999771
[Rope3_Seg08]
15 139.999985 -0.000060 0.000000 -0.143390 3.853194 -1.957907 139.999985
16 139.999985 -0.000060 0.000000 -0.403877 3.436505 -2.464823 139.999985
[Rope3_Seg09]
15 90.185997 -0.000179 -0.000060 89.793228 -1.359877 -0.847183 90.185997
16 90.185997 -0.000179 -0.000060 89.793228 -1.359877 -0.847183 90.185997
[R_rear_hand01]
15 103.366196 -6.073594 -10.757982 -177.714203 24.565960 -73.910950 104.101845
16 103.366196 -6.073594 -10.757982 -177.714203 24.565960 -73.910950 104.101845
[R_rear_hand02]
15 100.509819 12.039542 -7.992327 -12.874829 36.868488 72.167213 101.543350
16 100.509819 12.039542 -7.992327 -12.874829 36.868488 72.167213 101.543350
[R_rear_hand03]
15 101.539970 5.215704 5.435467 71.484581 -71.816628 21.513813 101.819031
16 101.539970 5.215704 5.435467 71.484634 -71.816666 21.513842 101.819031
[Rope4_Seg01]
15 -0.000031 -0.000201 0.000000 -96.866112 8.611971 -90.539307 0.000203
16 -0.000032 -0.000212 0.000000 -98.523537 3.644818 -99.866341 0.000215
[Rope4_Seg02]
15 139.999985 0.000060 0.000119 -0.086560 6.172721 0.843945 139.999985
16 139.999985 0.000060 0.000119 0.265076 7.118275 3.675751 139.999985
[Rope4_Seg03]
15 139.999924 0.000000 -0.000238 0.205514 9.537302 0.480361 139.999924
16 139.999924 0.000000 -0.000238 0.540905 10.051442 4.096411 139.999924
[Rope4_Seg04]
15 139.999985 0.000000 0.000119 0.775599 10.513868 2.094581 139.999985
16 139.999985 0.000000 0.000119 0.604475 11.957161 5.751219 139.999985
[Rope4_Seg05]
15 139.999802 -0.000060 -0.000119 -1.448498 -1.727497 4.575611 139.999802
16 139.999802 -0.000060 -0.000119 -3.972210 -1.309324 6.499002 139.999802
[Rope4_Seg06]
15 139.999924 0.000000 0.000060 -0.442752 0.043996 1.994716 139.999924
16 139.999924 0.000000 0.000060 -1.909041 -0.967158 3.030569 139.999924
[Rope4_Seg07]
15 139.999802 0.000000 0.000000 -0.213696 0.201903 1.287193 139.999802
16 139.999802 0.000000 0.000000 -1.013708 -0.080273 1.921463 139.999802
[Rope4_Seg08]
15 139.999924 0.000000 0.000119 -1.649646 0.105684 0.697557 139.999924
16 139.999924 0.000000 0.000119 -2.170450 -0.070253 1.165458 139.999924
[Rope4_Seg09]
15 90.185791 0.000060 0.000060 -135.617828 2.228885 0.850567 90.185791
16 90.185791 0.000060 0.000060 -135.617828 2.228885 0.850567 90.185791
[L_rear_hand01]
15 101.696655 -8.392275 -7.654577 -12.874829 -36.868488 107.832764 102.329041
16 101.696655 -8.392275 -7.654577 -12.874829 -36.868488 107.832764 102.329041
[L_rear_hand02]
15 102.726799 -1.568258 5.773216 71.484581 71.816628 158.486160 102.900848
16 102.726799 -1.568258 5.773216 71.484581 71.816628 158.486160 102.900848
[L_rear_hand03]
15 104.552910 9.721220 -10.420293 -177.714203 -24.565960 -106.089035 105.519653
16 104.552910 9.721220 -10.420293 -177.714203 -24.565960 -106.089035 105.519653
